<svg xmlns="http://www.w3.org/2000/svg" width="1200" height="630" viewBox="0 0 1200 630">
  <defs>
    <linearGradient id="bg" x1="0" y1="0" x2="1" y2="1">
      <stop offset="0%" stop-color="#090909"/>
      <stop offset="100%" stop-color="#141414"/>
    </linearGradient>
    <radialGradient id="glow" cx="0.2" cy="0.2" r="0.9">
      <stop offset="0%" stop-color="#e63329" stop-opacity="0.28"/>
      <stop offset="100%" stop-color="#e63329" stop-opacity="0"/>
    </radialGradient>
  </defs>

  <rect width="1200" height="630" fill="url(#bg)"/>
  <rect width="1200" height="630" fill="url(#glow)"/>

  <rect x="70" y="70" width="1060" height="490" rx="10" fill="#0d0d0d" stroke="#2a2a2a" stroke-width="2"/>
  <rect x="70" y="70" width="1060" height="52" rx="10" fill="#111111"/>
  <circle cx="102" cy="96" r="8" fill="#e63329"/>
  <circle cx="128" cy="96" r="8" fill="#353535"/>
  <circle cx="154" cy="96" r="8" fill="#353535"/>

  <text x="190" y="102" fill="#666666" font-size="18" font-family="Arial, Helvetica, sans-serif" letter-spacing="2">
    REDLINE SIGNAL
  </text>

  <text x="100" y="210" fill="#f2f2f2" font-size="66" font-weight="700" font-family="Arial, Helvetica, sans-serif" letter-spacing="2">
    REDLINE SIGNAL
  </text>
  <text x="100" y="260" fill="#8f8f8f" font-size="24" font-family="Arial, Helvetica, sans-serif" letter-spacing="1.5">
    Global Risk &amp; Sentiment Intelligence Dashboard
  </text>

  <rect x="100" y="315" width="250" height="44" rx="5" fill="#121212" stroke="#303030"/>
  <rect x="370" y="315" width="250" height="44" rx="5" fill="#121212" stroke="#303030"/>
  <rect x="640" y="315" width="250" height="44" rx="5" fill="#121212" stroke="#303030"/>

  <text x="120" y="344" fill="#9b9b9b" font-size="16" font-family="Arial, Helvetica, sans-serif">Platform Filters</text>
  <text x="390" y="344" fill="#9b9b9b" font-size="16" font-family="Arial, Helvetica, sans-serif">Geo Intelligence</text>
  <text x="660" y="344" fill="#9b9b9b" font-size="16" font-family="Arial, Helvetica, sans-serif">Security Signals</text>

  <circle cx="964" cy="176" r="8" fill="#1d9bf0"/>
  <text x="982" y="181" fill="#7c7c7c" font-size="14" font-family="Arial, Helvetica, sans-serif">Twitter/X</text>
  <circle cx="964" cy="206" r="8" fill="#ff7a00"/>
  <text x="982" y="211" fill="#7c7c7c" font-size="14" font-family="Arial, Helvetica, sans-serif">Reddit</text>
  <circle cx="964" cy="236" r="8" fill="#ff6600"/>
  <text x="982" y="241" fill="#7c7c7c" font-size="14" font-family="Arial, Helvetica, sans-serif">HackerNews</text>
</svg>
